<?xml version="1.0" encoding="UTF-8"?>
<svg id="Layer_1" xmlns="http://www.w3.org/2000/svg" version="1.1" viewBox="0 0 382 138.6">
  <!-- Generator: Adobe Illustrator 29.7.1, SVG Export Plug-In . SVG Version: 2.1.1 Build 8)  -->
  <defs>
    <style>
      .st0 {
        fill: #041533;
      }

      .st1 {
        fill: #877051;
        font-family: ProximaNova-Regular, 'Proxima Nova';
        font-size: 14.6px;
      }

      .st2 {
        fill: none;
        stroke: #877051;
        stroke-linecap: round;
        stroke-miterlimit: 10;
        stroke-width: .5px;
      }
    </style>
  </defs>
  <g>
    <path class="st0" d="M0,38.3v11.9h0v49.9h11.9v-44.7c13.3,3.7,26.6.6,39.9-3.4v27.3h11.9v-31c13.3-4,26.6-7.1,39.9-3.4v55.2h11.9v-49.9h0v-11.9C77,14.4,38.5,62.2,0,38.3Z"/>
    <path class="st0" d="M363.7,84.6v-46.3h-63.2v61.9h18c13.2,0,25-5.6,33.2-14.5v14.5h30.2c-2.6,0-16-.3-18.3-15.5ZM351.8,55.1c0,17.9-15.2,33.1-33.2,33.1h-6v.3c-.1,0-.1-10-.1-10v-28.3h39.3v4.8Z"/>
    <path class="st0" d="M197.8,51.1v-12.8h-11.9v61.9h11.9v-18.3c0-18.1,15.4-33.3,33.5-33.3v-12.1c-13.3,0-25.2,5.7-33.5,14.7Z"/>
    <polygon class="st0" points="275 38.4 253.1 60.3 253.1 0 241.2 0 241.2 100.1 253.1 100.1 253.1 76 258.1 70.9 278.6 100.2 290.8 100.1 265.9 63.2 290.8 38.3 275 38.4"/>
    <path class="st0" d="M125.3,38.3v61.9h30.2c-2.6,0-16-.3-18.3-15.5v-7.4h39v-38.9h-50.9ZM164.3,66.4h-27v-16.2h27v16.2Z"/>
  </g>
  <g>
    <g>
      <text class="st1" transform="translate(31.1 130.9)"><tspan x="0" y="0">ARCHITECTURE</tspan></text>
      <text class="st1" transform="translate(209.9 130.9)"><tspan x="0" y="0">CONTRACTING</tspan></text>
    </g>
    <line class="st2" x1="194.5" y1="113.1" x2="194.5" y2="138.6"/>
  </g>
</svg>