<?xml version="1.0" encoding="UTF-8"?>
<svg id="Layer_1" xmlns="http://www.w3.org/2000/svg" version="1.1" viewBox="0 0 198 67.5">
  <!-- Generator: Adobe Illustrator 29.7.1, SVG Export Plug-In . SVG Version: 2.1.1 Build 8)  -->
  <defs>
    <style>
      .st0 {
        fill: #041533;
      }

      .st1 {
        fill: #877051;
        font-family: ProximaNova-Regular, 'Proxima Nova';
        font-size: 9.2px;
      }
    </style>
  </defs>
  <g>
    <path class="st0" d="M.9,19.6v6.1h0v25.5h6.1v-22.8c6.8,1.9,13.6.3,20.4-1.7v14h6.1v-15.8c6.8-2,13.6-3.6,20.4-1.7v28.2h6.1v-25.5h0v-6.1C40.3,7.4,20.6,31.8.9,19.6Z"/>
    <path class="st0" d="M186.8,43.2v-23.7h-32.3v31.6h9.2c6.7,0,12.8-2.8,17-7.4v7.4h15.4c-1.3,0-8.2-.2-9.3-7.9ZM180.7,28.1c0,9.2-7.8,16.9-16.9,16.9h-3.2c0,.1,0-5,0-5v-14.4h20.1v2.5Z"/>
    <path class="st0" d="M102.1,26.1v-6.6h-6.1v31.6h6.1v-9.4c0-9.2,7.9-17,17.1-17v-6.2c-6.8,0-12.9,2.9-17.1,7.5Z"/>
    <polygon class="st0" points="141.5 19.6 130.3 30.8 130.3 0 124.2 0 124.2 51.2 130.3 51.2 130.3 38.8 132.9 36.3 143.3 51.2 149.5 51.2 136.8 32.3 149.5 19.6 141.5 19.6"/>
    <path class="st0" d="M65,19.6v31.6h15.4c-1.3,0-8.2-.2-9.3-7.9v-3.8h19.9v-19.9h-26ZM84.9,33.9h-13.8v-8.3h13.8v8.3Z"/>
  </g>
  <text class="st1" transform="translate(27.4 67.4)"><tspan x="0" y="0">ENGINEERING CONSULTANTS</tspan></text>
</svg>